<?xml version="1.0" encoding="UTF-8"?>
<svg id="OBJECTS" xmlns="http://www.w3.org/2000/svg" viewBox="0 0 208 208.59">
  <defs>
    <style>
      .cls-1 {
        fill: #e5beec;
      }
    </style>
  </defs>
  <path class="cls-1" d="m175.97,155.8c-.1-1.37.04-2.75-.02-4.12-.03-.56-.25-1.13-.45-1.66-1.9-5.07-4.72-9.68-7.3-14.41-3.8-6.98-7.28-14.13-10.01-21.61-.67-1.84-1.25-3.72-1.88-5.58-1.03-3.03-2.08-6.05-3.1-9.09-.23-.69-.41-1.4-.57-2.12-.64-2.98-1.3-5.97-1.89-8.96-.96-4.87-1.69-9.76-1.45-14.75.05-1.02.25-2.02.28-3.04.09-2.84-.17-5.72.25-8.51,1-6.64-.58-12.95-2.29-19.18-.95-3.45-2.7-6.76-4.53-9.88-2.08-3.55-4.61-6.83-7.02-10.18-.58-.8-1.35-1.58-2.21-2.05-2.22-1.22-4.49-2.38-6.83-3.36-4.26-1.79-8.77-2.71-13.37-2.99-3.42-.21-6.85-.05-10.28-.18-7.75-.29-14.44,2.84-20.62,6.91-4.97,3.28-8.86,7.84-11.9,13.13-.85-.12-1.76-.11-2.57-.39-1.82-.62-3.31.05-4.71,1.06-7.07,5.07-10.68,12.24-12.07,20.57-1.08,6.42-.71,12.94-.55,19.43.11,4.52.27,9.05.17,13.57-.06,2.67-.55,5.32-.87,7.98-.03.28-.2.55-.35.8-1.28,2.13-2.4,4.38-3.88,6.35-3,4.02-6.2,7.9-9.32,11.84-1.9,2.4-3.94,4.71-5.66,7.23-3.6,5.3-5.85,11.22-7.48,17.4-1.44,5.48-2.04,10.97-1.62,16.68.38,5.15,1.74,9.86,4.11,14.38,1.55,2.96,3.67,5.39,6.24,7.52,3.09,2.57,6.69,4.12,10.33,5.65-.2.38-.38.74-.56,1.08.68.45,1.45.73,1.86,1.27.92,1.22,2.1,1.36,3.44,1.26.43-.03.88,0,1.31.07,8.98,1.42,18.05.83,27.08,1.12,1.81.06,3.63-.23,5.44-.23,4.01,0,8.02.19,12.03.11,4.73-.08,9.45-.33,14.19.01,1.74.13,3.5.04,5.26-.01,2.83-.09,5.66-.24,8.49-.35,5.98-.23,11.95-.43,17.93-.69,2.02-.09,4.04-.44,6.06-.5,1.45-.04,3.03-.16,4.37.25.23-.07.46-.13.7-.2.06,0,.13.02.2,0,2.18-.4,4.38-.88,6.52-1.52.09,0,.17-.03.26-.04.52-.05,1.05-.09,1.58-.12.04-.18.09-.34.12-.49,3.77-1.36,7.26-3.36,9.95-6.54,1.77-2.09,2.77-4.63,3.7-7.17.99-2.72,2.12-5.44,2.7-8.28.66-2.43,1-4.91.81-7.48ZM71.97,43.9c.02-.8.22-1.62.11-2.4-.37-2.56.75-4.59,2-6.68,2.15-3.6,5.15-6.42,8.06-9.34,5.37-5.38,11.95-8.31,19.41-8.97,8.04-.71,16.01.06,23.79,2.4,2.85.86,5.02,2.64,6.94,4.76,4.06,4.49,7.22,9.57,9.25,15.26,2.68,7.5,3.77,15.24,3.04,23.25-.33,3.63-.12,7.3-.16,10.95-.01,1.23-.09,2.47-.08,3.7.03,3.82.74,7.53,1.6,11.24.19.81.18,1.67.28,2.68-1.69-.84-2.14-3.06-4.23-2.79-1.63.21-3.26.4-5.03.61v-5.37c1.63-1.21,3.06-2.4,3.64-4.33-.25-.05-.45-.14-.5-.09-1.34,1.48-3.11,1.63-4.95,1.89-3.52.49-7.03.55-10.38-.55-3.17-1.05-6.21-2.49-9.24-3.92-2.41-1.14-4.81-2.38-7.04-3.84-2-1.31-3.92-2.83-5.6-4.52-2.83-2.84-5.5-5.84-8.11-8.89-1.6-1.86-3.44-3.33-5.52-4.58-1.18-.71-2.24-1.63-3.44-2.29-.86-.47-1.86-.96-2.8-.96-2.58,0-5.01.84-7.35,1.88-.57.25-1.14.56-.91,1.27.25.77.85,1.16,1.71.91.98-.28,1.95-.58,2.93-.85.98-.28,1.96-.6,2.95-.8,1.26-.25,2.47-.16,3.36.99.13.17.31.33.5.43,4.66,2.43,7.88,6.43,11.26,10.26,5.24,5.93,11.37,10.67,18.55,14.02.12.06.2.2.53.55-2.19-.45-3.93-1.3-5.74-1.98-4.64-1.74-7.95-5.35-11.74-8.28-.73-.56-1.26-1.42-1.79-2.2-.54-.79-1.15-1.21-2.16-1.2-5.21.1-10.1-1.26-14.76-3.5-.71-.34-1.4-.8-2-1.3-1.42-1.19-4.08-5.33-4.74-7.26.46-1.35,1.51-2.14,2.75-2.66,2.74-1.16,5.48-2.36,8.29-3.32,2.06-.7,4.22-1.14,6.37-1.47,1.11-.17,2.3.13,3.45.21,1.89.14,3.78.28,5.67.42.58.04,1.19-.04,1.75.11,5.79,1.52,11.37,3.33,16.34,6.99,3.29,2.43,5.27,5.59,7.14,8.94,2.06,3.69,3.89,7.52,5.89,11.25.72,1.34,1.61,2.6,2.51,3.84.29.41.83.63,1.26.94.12-.1.24-.19.37-.29-1.31-3.12-2.53-6.29-3.95-9.36-1.42-3.09-3.03-6.1-4.58-9.13-1.69-3.31-4.09-5.96-7.12-8.16-3.69-2.67-7.48-5.11-11.85-6.48-2.22-.69-4.51-1.27-6.81-1.54-3.39-.39-6.83-.72-10.23-.58-.31.01-.62.05-.93.08-1.51.37-3.03.7-4.49,1.29-1.84.75-3.78,1.54-5.58,2.53-.76.44-1.5.9-2.15,1.44-1.32,1.09-3.16-.65-1.91-1.91.09-.09.17-.19.26-.28,0,0,.02-.02.03-.03,1.37-1.45,2.6-3.16,4.06-4.55,2.71-3.22,5.07-5.69,9.17-7.5,5.37-2.37,10.67-2.45,16.45-2.4.39,0,.68.15.9.37,5.23.1,10.19,1.63,14.48,5.42,3.95,3.49,6.95,7.84,7.88,13.28.58,3.38,1.15,6.76,1.87,10.11.34,1.58.99,3.1,1.5,4.64.18-.04.36-.08.53-.13-.2-1.66-.43-3.32-.58-4.98-.08-.86-.08-1.74.02-2.59.3-2.64-.1-5.14-.69-7.75-1.28-5.68-4.93-9.86-8.55-13.93-3.21-3.6-7.37-6.22-12.31-7.1-2.65-.47-5.34-.64-8.01-1.01-4.47-.61-8.41.99-12.27,2.88-2.71,1.33-5.32,2.85-7.85,4.22.47-1.04,3.45-3.5,6.84-5.33,2.58-1.39,5.27-2.59,8.27-4.06-3.85.03-6.72,2.36-10.05,2.8-.08-.14-.16-.28-.24-.43,2.15-1.84,4.3-3.68,6.45-5.53-.03-.05-.06-.1-.1-.15-3.61,3.12-7.97,5.3-10.95,9.09-2,2.55-3.5,5.4-5.39,7.99-.02.43-.14.88-.35,1.15-1.59,2.05-3.33,3.98-5.21,6.18,0-1.46-.02-2.58,0-3.7Zm63.11,63.64c1.99-.14,3.68-.43,4.15-2.78.56-2.8-1.61-3.34-3.59-4.49,1.62-.49,2.85-.87,4.2-1.28-.79-2.14-2.66-1.91-4.18-2.35v-1.09c1.92.8,1.99.85,4.35-2.33.43.65.82,1.21,1.19,1.79.69,1.08,1.4,2.14,2.04,3.25.19.33.32.86.2,1.19-.83,2.25-1.34,4.75-2.72,6.61-1.22,1.64-2.81,3.71-5.75,3.09.03-.48.07-1.01.12-1.61Zm-.2-5.23l.61-.35c.43.27,1.18.48,1.23.81.17.98-.41,1.74-1.5,2.56-.14-1.2-.24-2.11-.34-3.02Zm4.13-11.19c.06-.17.13-.35.19-.52.5-.27.97-.58,1.49-.81.85-.37,1.56-.18,2.04.65.9,1.57,1.7,3.16,1.05,5.27-1-2.25-1.61-4.69-4.77-4.59Zm-9.5,89.56c-.55,0-1.1-.03-1.65,0-6.5.47-13.02.34-19.53.28-2.84-.03-5.68-.3-8.52-.25-4.08.07-8.16.39-12.24.51-6.2.18-12.4.33-18.6.4-3.87.05-7.73-.06-11.6-.11-.78-.01-1.55-.1-2.9-.19.97-.84,1.5-1.4,2.13-1.82,3.02-2,6.2-3.78,9.05-6,1.8-1.4,3.69-2.56,5.61-3.72.86-.52,1.64-1.21,2.35-1.93,2.1-2.13,4.27-4.15,6.79-5.79,2.52-1.65,3.44-4.17,3.46-7.11.02-3.81-.53-7.54-1.19-11.28-.2-1.12-.13-2.29-.2-3.57,12.12,5.31,23.64,5.98,34.57-3.2.19,1.94.5,3.5.47,5.06-.07,3.32.75,6.51,1.12,9.76.5,4.37,1.62,8.57,2.93,12.76.6,1.91,1.38,3.67,2.66,5.2.28.34.55.68.81,1.03,2.25,3.12,5.1,5.58,8.35,7.63,1.31.83,2.56,1.74,3.84,2.62-.04.16-.08.31-.11.47h-9c.58-.21,1-.35,1.41-.49,0-.08-.01-.16-.02-.25Zm-63.26-38.42c.85-1.3,1.78-2.56,2.54-3.92,1.44-2.58,2.79-5.22,4.29-8.05,1.23,1.58,2.37,3.05,3.69,4.74-.88.81-1.76,1.64-2.65,2.46-4.59,4.21-7.18,9.31-6.96,15.65.04,1.2.05,2.45,1.2,3.91.16-4.35.21-8.26,1.93-11.96,1.71-3.68,4.35-6.48,7.17-9.21.32.16.54.22.69.36,2.32,2.15,2.3,2.16.44,4.78-.54.76-.96,1.61-1.43,2.42.02-.01.03-.03.05-.04-2.47,2.72-3.79,5.9-3.94,9.59-.12,3.12.52,6.08,1.76,9.09-2.39,1.68-4.74,3.33-7.18,5.04-2.85-4.47-5.23-8.9-5.37-14.08-.07-2.74.19-5.53,2.02-7.88.52-.66.74-1.55,1.1-2.34-1.44.45-2.04,1.81-2.42,2.94-1.04,3.09-2.27,6.16-2.18,9.54.08,2.91.89,5.59,2.13,8.17.76,1.57,1.54,3.12,2.43,4.91-1.24,1-2.47,1.99-3.69,3-1.16.95-2.28.72-3.38-.08-2.19-1.59-3.74-3.7-4.58-6.25-1.64-5.03-1.47-9.97.45-14.97,1.77-4.62,4.14-8.83,7.07-12.77,1.35-1.81,2.67-3.63,4.01-5.45,1.63-2.2,2.68-4.67,3.55-7.24.11-.32.23-.64.45-1.27.69,1.45,1.36,2.56,1.75,3.77.2.61.04,1.44-.21,2.06-1.44,3.58-2.98,7.13-4.44,10.71-.3.73-1.14,1.47-.28,2.37Zm13.37,11.07c.03,2.86-.71,5.44-3.13,7.56-1.5-5.46-2.1-10.69.24-15.91.23-.5.34-1.06.5-1.59.59-.45,1.18-.91,1.96-1.51.08.68.18,1.15.19,1.62.09,3.28.2,6.56.24,9.83Zm33.15-16.71c-4.95,4.31-10.75,5.95-17.33,4.72-2.18-.41-4.17-1.28-6.26-1.84-4.1-1.09-6.38-4.22-8.82-7.14-4.16-4.98-6.57-10.92-8.82-16.93-.81-2.15-2-4.16-2.81-6.32-.72-1.9-1.14-3.91-1.73-5.86-.16-.54-.31-1.17-.69-1.53-.95-.9-.92-1.95-.6-3.01,1.02-3.39,1.45-6.81,1.35-10.37-.07-2.5,1.34-4.55,2.76-6.53,1.7-2.37,3.38-4.76,4.98-7.19,1.59-2.42,1.88-5.17,1.74-7.99-.06-1.23-.14-2.47-.22-3.97.6.3,1.02.48,1.41.71,4.48,2.6,9.24,4.34,14.47,4.48,1.09.03,1.73.58,2.41,1.27,3.33,3.39,6.71,6.74,10.88,9.11,1.95,1.11,4.03,1.99,6.09,2.89,1.18.52,2.44.88,3.79,1.36-2.37,1.04-4.57,2-6.76,2.99-.45.2-1,.42-1.26.79-.5.73-.77,1.6-.25,2.47.41.68,1.94,1.16,2.74.78.79-.37,1.53-.85,2.26-1.33,3.45-2.32,7.11-2.49,10.93-1.1.34.12.67.28,1.17.5.66-.36,1.22-.68,1.94-1.07-.42-.74-.79-1.4-1.28-2.25,3.24-.24,6.33-.47,9.74-.73,0,.89.11,1.72.01,2.54-.36,3.19-.74,6.37-1.19,9.55-.39,2.8-1.06,5.57-1.29,8.39-.5,5.93-2.6,11.27-5.44,16.42-3.52,6.37-8.5,11.48-13.89,16.19Zm-58.94-45.02c.82-5.19,1.01-10.4.74-15.66-.11-2.16.28-4.34.4-6.52.12-2.19.24-4.38.26-6.57.03-4.05.68-7.99,1.81-11.86.24-.84.55-1.68.63-2.54.19-1.92,1.47-3.27,2.39-4.8,1.78-2.95,3.8-5.69,6.83-7.56.99-.61,1.83-.73,2.99-.33.28,3.5-.15,6.96-.54,10.7-3.6-.77-7.19-1.34-9.35,3.24.99-.51,1.68-.81,2.32-1.2,1.55-.95,3.22-1.3,5.01-1.05,2.04.28,2.13.45,1.88,2.88-3.03.45-6.22.68-8.27,3.58-1.8,2.55-2.31,5.4-2.19,8.48.74-1.62,1.47-3.25,2.22-4.87,1.28-2.77,3.58-5.49,8-5.42,1.28,3.56,1.57,7.51,4.04,10.94.16-.82.29-1.48.42-2.13l.5-.03c.1.58.27,1.16.29,1.74.04,1.31-.07,2.63,0,3.94.15,2.98-.89,5.59-2.51,7.99-1.96,2.9-3.97,5.77-5.98,8.64-1.22,1.74-1.75,3.63-1.63,5.77.21,3.68-.58,7.25-1.32,10.82-.07.34-.29.65-.49,1.07-.9-.46-1.02-1.19-1.12-1.99-.41-3.18-.84-6.35-1.32-9.52-.23-1.49-.66-2.93-1.45-4.48-1.43,2.51-1.23,4.98-1.14,7.55-1.17.26-2.27.51-3.54.8.05-.65.06-1.15.14-1.63Zm5.96,13.33c-1.5,1.21-1.81,1.26-2.46.47-.91-1.09-.68-2,1.08-3.4.47.99.9,1.91,1.38,2.93Zm-2.11-8.6c.02.2-.06.41-.09.57-1.24.18-2.43.35-3.6.52.23-2.68,1.3-3.68,3.45-3,.08.61.17,1.26.23,1.91Zm-4.36,4.7c.35-1.6,1.31-2.53,3.23-2.37.36.56.77,1.21,1.25,1.97-1.4.94-3.02,1.49-3.24,3.18-.08.63.28,1.42.66,1.98,1.41,2.06,3.1,2.17,5.34.67,1.29.21,2.34.39,3.85.63.39.43.45,1.32.05,2.37-.25.65-.26,1.41-.31,2.12-.18,2.88-1.94,5.1-4.72,5.87-.83.23-1.3.09-2.75-.86.15-.65.28-1.21.46-1.97-.5.13-.85.22-1.41.36-.2-.49-.38-1-.61-1.5-.67-1.44-.51-3.06-1.36-4.56-.76-1.35-.65-3.24-.76-4.9-.06-.99.11-2.02.32-3Zm.06,15.76q.83,1.38-1.08,3.22c.44-1.33.73-2.17,1.08-3.22Zm-7.82,66.1c-.69-.26-1.4-.43-2.02-.78-3.48-1.98-6.94-3.98-9.76-6.9-1.17-1.21-2.22-2.46-2.82-4.09-.63-1.7-1.4-3.35-2.2-4.98-1.46-2.99-1.32-6.25-1.47-9.41-.17-3.48.07-6.98.27-10.46.09-1.58.39-3.17.83-4.7.69-2.43,1.48-4.85,2.4-7.2,1.43-3.67,3.37-7.07,5.49-10.41,1.85-2.92,3.95-5.56,6.29-8.09,1.42-1.54,2.46-3.42,3.77-5.08,1.03-1.3,2.21-2.48,3.64-4.06.49,3.19,1.98,5.75,1.88,8.72-.02.56.18,1.12.29,1.69.04.11.06.22.09.33-.25.82-.5,1.65-.79,2.58-.27-.17-.48-.3-.71-.45-.43,1.15-.64,2.45-1.33,3.4-.96,1.34-2.25,2.45-3.45,3.61-3.04,2.94-5.86,6.02-8.39,9.46-3.27,4.45-4.86,9.43-6.08,14.61-.76,3.22-.63,6.59,0,9.81.63,3.26,1.66,6.48,2.82,9.61,1.67,4.49,5.13,7.56,8.95,10.23,1.02.71,1.43.7,3.11.33-.61-.74-1.09-1.42-1.67-1.99-1.87-1.83-3.88-3.53-5.65-5.45-.75-.81-.98-2.08-1.55-3.08-2.06-3.65-2.77-7.66-3.22-11.74-.11-1.01-.29-2.02-.38-3.04-.06-.72-.2-1.49-.01-2.16,1-3.53,1.28-7.18,2.92-10.64,1.78-3.77,3.58-7.46,6.13-10.73,1.34-1.72,2.92-3.24,4.39-4.85,3.67-1.25,4.39-5.25,6.99-7.5.32-.28.56-.65.82-.95,4.92,1.95,7.5.11,11.61-4.08.66,2.29,1.41,4.38,1.09,6.83-.62,4.85-3.18,8.65-5.91,12.49-3.84,5.4-7.66,10.82-9.69,17.28-1.67,5.3-1.6,10.49.24,15.66.83,2.34,2.53,4.07,4.64,5.38.48.29.96.57,1.65.98-2.36,1.56-4.54,2.99-6.83,4.5-2.49-1.48-4.18-3.64-5.38-6.29-1.24-2.74-2.29-5.54-2.53-8.52-.18-2.24-.14-4.54.14-6.77.49-3.9,1.25-7.76,1.88-11.64.04-.26,0-.53,0-1.29-.48.71-.77.99-.91,1.34-2.39,5.96-3.63,12.19-3.29,18.57.33,6.43,2.64,12.1,8.32,16.31-1.57,1.24-3.03,2.39-4.57,3.61Zm97.97,2.5c-5.25.16-10.5.38-15.75.44-14.81.19-29.63.28-44.44.46-7.07.09-14.14.35-21.21.39-4.08.02-8.16-.22-12.23-.39-.86-.04-1.71-.29-2.85-.5,1.19-.8,2.13-1.46,3.11-2.06.28-.17.69-.29,1.01-.23,5.2,1.01,10.47.61,15.71.7,6.2.11,12.4.05,18.6,0,6.83-.07,13.65-.36,20.48-.28,5.1.06,10.17,0,15.25-.44,5.41-.47,10.82-.91,16.24-1.34.5-.04,1.09-.12,1.51.09,1.79.87,3.52,1.85,5.57,2.94-.59.14-.78.23-.98.23Zm3.07-4.47c-.67-.42-1.29-.8-1.92-1.19.28-.39.34-.57.45-.61,4.25-1.72,6.26-5.54,7.66-9.35,1.71-4.66,2.16-9.62.6-14.61-.95-3.03-2.32-5.83-3.8-8.58-.69-1.27-1.66-2.39-2.51-3.58l-.38.21c.1.28.18.57.29.85.59,1.55,1.29,3.06,1.75,4.65.46,1.59.57,3.28,1.01,4.88,2.05,7.45.66,14.31-3.55,20.64-.82,1.23-2.13,2.14-3.26,3.15-.62.55-1.37.42-2.03.02-3.23-1.96-6.73-3.56-9.11-6.68-.4-.52-.69-1.26-1.21-1.51-1.7-.79-2.3-2.39-3.09-3.85-.84-1.53-.83-1.76.46-3.02,1.61-1.56,2.39-3.43,2.51-5.65.16-2.89-.72-5.61-1.24-8.39-.08-.44-.32-.84-.54-1.41-.21.34-.33.46-.34.58-.27,3.77-.48,7.55-.8,11.32-.09,1.07-.48,2.11-1.78,2.83-.53-1.15-1.17-2.14-1.45-3.22-1.05-4.01-2.09-8.03-2.93-12.09-.78-3.76-1.31-7.58-1.99-11.62.58-.53,1.37-1.24,2.42-2.2.97,3.29,2.73,5.86,2.99,9.09.26,3.18.77,6.36,1.95,9.37-.46-6.69-1.75-13.24-3.46-19.99.65-.7,1.47-1.6,2.46-2.68.44,1.36.78,2.44,1.14,3.52,1.38,4.15,3.25,8.07,5.35,11.92,1.27,2.33,2.33,4.94,2.77,7.54.85,4.99-.19,9.88-1.87,14.62-.32.9-.68,1.79-1.73,2.1-.1.03-.15.21-.33.49.37.4.77.83,1.33,1.42.83-.97,1.7-1.64,2.1-2.52,1.28-2.85,2.79-5.68,3.45-8.69.74-3.37.94-6.94-.68-10.28-1.34-2.75-2.48-5.62-3.95-8.29-1.45-2.62-2.53-5.35-3.54-8.15-.65-1.79-1.21-3.73-3.24-4.81.72-.95,1.39-1.8,2.01-2.67.65-.92,1.25-1.86,1.92-2.87,1.08,2.34,2.13,4.54,3.12,6.78,1.87,4.27,3.77,8.53,5.54,12.84,2.04,4.99,4.24,9.95,3.93,15.56-.22,4.15-.18,8.31-.43,12.46-.13,2.12-.31,2.11.37,4.02,2.34-2.42,2.98-5.46,2.93-8.8-.05-3.13.36-6.28.21-9.41-.11-2.22-.48-4.55-1.31-6.6-2.26-5.61-4.83-11.09-7.27-16.62-1.62-3.67-3.21-7.35-4.85-11-.69-1.53-.98-2.89.13-4.45.59-.83.6-2.07.87-3.13.23-.9.46-1.81.71-2.82,1.06.05,1.97.09,2.92.13.63,6.07,1.93,11.71,4.65,16.99,2.42,4.7,5.13,9.16,8.77,13.02,3.1,3.29,6.22,6.56,8.8,10.3,1.73,2.52,3.2,5.09,2.86,8.27-.26,2.46-.51,4.93-1.01,7.34-.49,2.34-1.29,4.61-2,7.04.52.05,1.08.29,1.31.1,1.28-1.03,2.65-2.02,3.67-3.28,1.32-1.63,1.31-3.77,1.68-5.78.78-4.23.08-8.12-2.16-11.74-.57-.93-1.21-1.82-1.88-2.68-2.15-2.76-4.27-5.54-6.5-8.23-2.04-2.47-4.44-4.68-6.25-7.3-2.24-3.22-4.44-6.57-5.91-10.18-1.71-4.21-3.18-8.61-3.47-13.24-.04-.59.13-1.28.44-1.78.81-1.28,1.79-2.47,2.65-3.72,2.26-3.29,3.79-6.84,3.83-10.92,0-.24.13-.48.23-.82.22.25.35.33.38.45,1.76,5.77,3.51,11.54,5.27,17.32,2.55,8.35,6.77,15.96,10.48,23.8,1.86,3.94,4.12,7.69,6.12,11.57,2.07,4.01,3.34,8.25,3.07,12.83-.1,1.67-.41,3.33-.56,5-.01.16-.03.33-.04.5-.02.03-.04.06-.05.1-1.36,4.79-2.8,9.83-6.36,13.49-2.71,2.78-7.1,4.45-11.21,5.21-1.04-.46-2.06-.98-3.15-1.25,1.1-3.12,2.09-6,3.14-8.85.37-.99.49-1.82-.84-2.59-.92,1.4-1.81,2.78-2.72,4.14-1.19,1.78-1.94,3.91-3.97,5.21Z"/>
  <path class="cls-1" d="m52.21,117.48c-.14.22-.28.44-.47.73-.46-.7-.66-1.17.38-1.07.04.11.06.22.09.33Z"/>
  <path class="cls-1" d="m90.21,88.28c-1.89.3-3.67,1.05-5.73-.21-2.34-1.43-4.93-.71-7.38.19-.82.3-1.61.82-2.45.89-1.63.15-2.37,1.11-3.05,2.43-.65,1.26-1.52,2.48-3.32,2.19-.72-1.12-.25-2.1.35-3.04,1.54-2.4,3.64-4.17,6.2-5.37,3-1.41,6.15-2.24,9.51-2.05,2.68.15,4.39,1.74,5.82,3.77.12.17.13.42.16.63.01.13-.05.28-.11.56Z"/>
  <path class="cls-1" d="m89.46,123.09c1,.15,1.72.2,2.41.36,3.5.82,7.07.99,10.63.9,2.86-.07,5.38-1.14,7.53-3.08.55-.5,1.22-.87,2.06-1.46.47,2.08-.78,3.35-1,4.82-5.24,2.32-10.59,2.6-16.06,1.48-1.35-.28-2.69-.6-4-1.01-.89-.28-.86-.36-1.58-2.01Z"/>
  <path class="cls-1" d="m98.8,119.15c1.75-1.82,3.91-2.75,4.67-5.07-2.02-2.83-3.88-5.8-4.28-9.39-.12-1.05-.02-2.12-.02-3.2,1.52-.21,1.92.47,2.16,1.54.4,1.77.78,3.56,1.44,5.24.66,1.68,1.55,3.29,2.55,4.8.63.95.63,1.6.05,2.55-1.44,2.36-3.28,3.87-6.57,3.55Z"/>
  <path class="cls-1" d="m88.41,98.45c-.03,1.45-.05,2.89-1.09,4.1-1,1.15-2.07,1.22-3.15.18-1.82-1.75-1.98-5.67-1.35-7.17.78-1.86,2.95-2.14,4.38-.69,1.03,1.04,1.22,2.25,1.21,3.58Z"/>
  <path class="cls-1" d="m114.89,98.27c-.05.72-.06,1.45-.16,2.17-.11.79-.2,1.57-1.16,1.91-1.02.36-1.91.04-2.63-.54-2.78-2.26-1.94-7.61,1.36-9.02.97-.42,1.65-.03,1.89.81.43,1.51.66,3.07.97,4.61-.09.02-.19.04-.28.06Z"/>
</svg>