<?xml version="1.0" encoding="UTF-8"?>
<svg id="OBJECTS" xmlns="http://www.w3.org/2000/svg" viewBox="0 0 208 208.59">
  <defs>
    <style>
      .cls-1 {
        fill: #e5beec;
      }
    </style>
  </defs>
  <path class="cls-1" d="m158.33,182.2c.07-.64.11-1.02.14-1.39.09-1.25.85-2.55-.26-3.74-.1-.1.05-.43.08-.66.55-5.33.35-10.65-.07-15.98-.29-3.72-.52-7.45-.65-11.18-.15-4.59-.15-9.18-.23-13.77-.08-4.27-.24-8.54-.25-12.8-.01-3.53.23-7.07.19-10.6-.03-2.98-.32-5.96-.46-8.94-.11-2.47.14-5-.3-7.41-.82-4.5-2.16-8.9-3.02-13.39-.76-3.94-2.74-7.2-4.94-10.41-2.56-3.74-5.46-7.18-8.71-10.33-.94-.9-1.45-1.95-1.74-3.22-1.17-5.13-1.85-10.39-3.91-15.3-.84-1.99-1.21-4.21-2.28-6.05-2.9-4.98-7.05-8.91-11.64-12.27-4.52-3.3-9.64-5.61-14.92-7.49-1.76-.63-3.62-.96-5.35-1.65-2.63-1.04-5.32-1.04-8.03-.8-2.79.24-5.6.46-8.35.97-2.66.49-5.38,1.07-7.87,2.1-4.81,1.99-8.54,5.55-11.9,9.41-1.83,2.11-2.78,4.8-3.58,7.52-1.77,5.98-2.56,11.99-1.44,18.19.23,1.26.25,2.56.37,3.84-1.99.47-3.81.86-5.6,1.32-2.57.67-5.17,1.36-6.64,3.88-.94,1.61-1.91,3.23-2.56,4.96-1.29,3.42-2.47,6.88-3.47,10.39-.5,1.76-.74,3.67-.69,5.5.06,2.47.47,4.94.78,7.4.16,1.3.5,2.57-.03,3.89-1.94,4.87-1.6,10.05-1.9,15.13-.11,1.83-.02,3.77.51,5.5.55,1.8-.25,3.48.24,5.33.59,2.24-.04,4.77.03,7.17.21,7.22.47,14.44.77,21.66.06,1.46.28,2.9.9,4.25.11,7.87.16,15.94,1.99,23.43,1.51,6.21,5.18,12.05,11.04,14.6-.26.09-.53.17-.79.26,1.26.33,1.79.46,2.4.33.33.1.67.21,1.01.29.69.17,1.07-.6.82-1.07,1.71-.82,3.4-1.67,5.01-2.65,2.39-1.46,4.66-3.1,7-4.65,5.14-3.4,9.9-7.3,14.25-11.62,2.99-2.97,4.5-6.93,4.52-11.2.01-3.02-.44-6.04-.62-9.06-.08-1.26-.01-2.53-.01-3.95,10.15,3.38,20.05,4.47,30.16-.34-.4,5.52,1.01,10.42,1.78,15.41.68,4.42,3.39,7.45,6.92,9.44,4.72,2.67,9.8,4.72,14.78,6.9,3.13,1.37,6.4,2.43,9.55,3.75,5.55,2.33,11.19,4.29,17.24,4.73.86.06,1.73-.05,2.59-.09.02-.17.03-.34.05-.51-4.29-1.68-8.58-3.36-12.9-5.05Zm-95.9,3.12c-4.98-2.41-6.17-7.83-6.52-12.96-.13-1.93-.23-3.86-.32-5.79.13-.33.23-.65.24-.98.06-1.7-.02-3.4-.13-5.1-.23-3.79-.53-7.57-.77-11.35-.18-2.87-.1-5.78-.53-8.62-.66-4.43-.47-8.83-.17-13.24.04-.65.35-1.27.58-2.07,2.42,1.29,4.72.77,6.79.4.16,3.14.33,6.13.43,9.13,0,.24-.59.48-.63.76-.11.68-.1,1.39-.08,2.09.08,3.59.11,7.18.27,10.77.18,3.92.42,7.84.73,11.75.21,2.64.54,5.29.85,8.11.4,5,1.48,11.13,5.61,12.8-2.06,1.51-4.18,2.94-6.36,4.29Zm-10.42-77.13c.14-.83.27-1.64.4-2.45.09-.61.07-1.26.28-1.82.14-.37.59-.83.93-.85.35-.03.87.34,1.07.69.63,1.06,1.15,2.2,1.86,3.6-2.51.67-4.41,1.88-4.64,4.45-.15,1.71,1.1,2.88,2.49,3.66,2.24,1.25,4,.05,5.62-1.4,1.83,1.95,1.95,2.36,1.16,4.37.66.19,1.32.32,1.94.56.68.27,1.07.88.52,1.46-1.11,1.16-2.22,2.45-3.59,3.21-2.16,1.21-3.67.79-5.35-1.16-2.92-3.38-4.69-7.3-5.02-11.78-.12-1.68-.02-3.38-.02-5.28q.63,2.29,2.36,2.76Zm-.67-10.61c2.69,1.43,3.27,2,3.85,3.81-2.47-.36-2.61-.3-5.45,2.09-.22-3.37-.03-4.1,1.59-5.9Zm11.1,7.58c.21.75.55,1.64-.53,2.44-.68-1.64-1.22-3.21-1.97-4.68-.77-1.5-1.75-2.88-2.78-4.54,1.34-.66,2.73-1.34,4.13-2.03.15.31.29.45.27.56-.36,2.82.14,5.54.88,8.24Zm-5.07,3.73c.8.78,1.99,1.33,2.02,3.06-.98.64-1.93,1.3-2.91,1.9-.69.42-1.38.63-2.13-.03-.74-.65-.99-1.43-.71-2.29.4-1.23,1.26-2.16,2.43-2.7.36-.17,1.05-.17,1.29.06Zm18.43,66.5c-1.83,1.63-3.72,3.16-5.67,4.63-.07-.06-.16-.1-.27-.13-5.26-1.37-5.25-12.02-5.51-16.12-.02-.31-.2-.51-.42-.61-.43-5.23-.33-10.46-.17-15.7.15-4.81.15-9.62.29-14.43.08-2.62.31-5.24.51-7.85.04-.47.31-.91.61-1.75.7,1.5,1.15,2.67,1.76,3.74,1.27,2.21,2.53,4.45,4,6.53,1.16,1.64,2.71,2.99,3.92,4.6.51.68.67,1.68.84,2.56.14.75.1,1.55.09,2.33-.01.61.08,1.09.78,1.23.04,0,.03.29.03.45,0,.85,0,1.7,0,2.56,0,.64.07,1.14-.67,1.69-.44.33-.08,1.74-.08,2.93.3-.49.45-.74.61-.99-.08,1.24-.55,2.39-.6,3.55-.13,3.27-.12,6.54-.1,9.81.01,2.49-.21,5.08.91,7.35.81,1.65.29,2.59-.86,3.62Zm-3.22-96.88c-.05-2.02-.08-2.02,1.05-3.95,1.85-.19,3.77-.39,5.7-.59.46-.05.95,0,1.39-.13,5.73-1.65,11.67-2.58,17.19-5,2.55-1.12,5.28-1.85,7.88-2.88.81-.32,1.4-.1,1.94.3,1.28.94,2.62,1.61,4.22,1.81.43.05,1.05.5,1.17.89,1.12,3.59,4.21,5.02,7.17,6.55.79.41,1.5.71,1.76,1.66.14.51.43,1.06.82,1.39,2.5,2.15,2.01,5.03,1.8,7.74-.18,2.26-.46,4.47.37,6.66.09.25-.04.58-.07.87-3.03-.06-5.96-.07-8.88-.18-3.15-.12-5.96.97-8.7,2.28-1.24.6-3.98,1.2-5.49,1.03-.46-.05-.94-.05-1.39.03-.99.17-1.76-.01-2.49-.82-1.22-1.36-3-1.64-4.67-1.88-6.12-.89-12.24-.92-18.3.51l.07-.06c-2.47,1.42-4.92,2.86-7.41,4.24-.69.38-1.47.59-2.25.89-.78-1.68-.5-2.95.58-3.88,2.87-2.48,4.35-5.84,5.78-9.18,1.13-2.64.84-5.5.77-8.29Zm52.93,19.51c-.52,2.83-1.13,5.47-1.46,8.15-.31,2.56-1.93,4.17-3.92,5.14-2.79,1.37-5.86,2.17-9,1.03-.75-.27-1.74-.75-2-1.38-.6-1.47-1.37-2.9-1.92-4.39-1.24-2.15-1.26-5.06.38-7.04,2.16-2.6,6.78-3.68,10.33-3.05.1,0,.2-.01.31,0,2.58.17,5.07.57,7.29,1.55Zm-27.97,2.56c-.33,1.8-.56,3.05-.81,4.43-1-1.75-.86-3.08.81-4.43Zm-3.27.67c.15.48-.35,1.15-.52,1.74-.66,2.22-1.48,4.42-1.91,6.69-.38,2-1.48,3.25-3.17,4-4,1.78-8.11,1.89-12.21.32-.54-.21-1.18-.62-1.4-1.1-1.08-2.48-2.26-4.95-2.99-7.54-.92-3.26.67-6.11,3.65-7.67,3.45-1.81,7.17-1.88,10.89-1.8,2.23.05,4.47.44,6.68.8.69.11,1.32.64,2.22,1.09-.89,1.28-1.64,2.14-1.23,3.47Zm-11.63,67.22c-1.12,1.66-2.05,2.64-4.28,4.08-.43-2.5-1.03-4.91-.61-7.38.65-3.8,1.28-7.57.26-11.42-.25-.94.14-2.04.2-3.07.17-2.92.33-5.85.5-8.9,1.79,1.27,3.47,2.51,5.21,3.66.81.54,1.07,1.18,1.09,2.12.07,3.02.42,6.05.32,9.06-.13,4.09-.26,8.24-2.69,11.85Zm37.3-27.2c-1.98,2.71-4.63,4.49-7.78,5.7-3.52,1.35-7.03,1.33-10.74,1.19-4.33-.16-8.32-1.09-12.04-3.06-4.27-2.26-8.02-5.26-11.28-8.88-3.2-3.56-5.83-7.43-7.55-11.94-.99-2.6-2.35-5.05-3.41-7.63-1.09-2.64-2.2-5.29-1.66-8.3.16-.9.08-1.87-.03-2.79-.4-3.23.48-2.85,2.75-3.25.76,2.66,1.47,5.34,2.29,7.97.35,1.1.84,2.19,1.44,3.17.43.7,1.05,1.48,1.77,1.76,2.15.85,4.39,2.05,6.6,2.07,5.16.07,10.49.05,14.42-4.28.13-.15.38-.19.96-.45-.51,2.15-.95,4-1.43,6.03.99,1.53,2.37,2.81,4.44,3.14.94.15,1.67-.16,2.24-1.19-1.36-.5-2.68-.99-4.03-1.49,1.07-6.58,2.12-13.03,3.16-19.42,2.23-.07,3.03.34,3.14,1.85.22,2.75,1.13,5.29,1.98,7.88.87,2.66,2.65,4.14,5.21,4.81,1.27.33,2.6.51,3.91.63,3.54.32,6.68-1.09,9.73-2.58.95-.46,1.61-1.53,2.73-2.65.06.96.09,1.43.13,2.1.42-.08.9-.17,1.44-.27.69-2.55.39-5.01-.25-7.45.41-.01.89.08,1.18-.11.48-.33.81-.88,1.48-1.66-.08,2.31,1.48,2.31,3.19,2.61-.58.8-.98,1.4-1.43,1.96-1.56,1.96-2.01,2.93-1.47,4.45.21.46.43.91.63,1.36.15.26.29.53.47.83.08.13.08.33.1.6.27.8.44,1.62.42,2.54-.06,2.18-1.04,4.41-1.79,6.42-.93,2.49-2.04,4.83-3.64,6.83-.7,1.76-1.64,3.41-2.78,4.99-1.55,2.14-2.95,4.38-4.51,6.51Zm7.43-41.83c.17.98.33,1.97.5,2.95-1.54-.65-1.11-1.78-.5-2.95Zm.51,2.99c.05.51.09,1.01.14,1.52-.31.4-.68.69-.72-.15-.02-.44.36-.91.57-1.36Zm8.3.54c-.8-.33-1.63-.67-2.6-1.08-.06-.84-.12-1.75-.18-2.72,1.42-.91,2.15-2.15,2.5-3.77.41-1.92.91-2.1,3-1.86.41.05.84-.09,1.3-.15-.96-2.4-3.5-2.61-6.87-.54.72-1.96,1.86-3.2,3.5-3.98,1.41-.67,3.4.65,3.99,2.54.84,2.67.76,5.4.25,8.07-.6,3.19-1.43,6.35-2.27,9.49-.56,2.1-1.45,4.08-3.1,5.99-.68-1.77-.51-3.51-1.8-4.74-.19-.18.13-1.27.51-1.58,1.82-1.48,1.83-3.45,1.78-5.68Zm19.96,78.14c-.41-.08-.72-.1-.99-.21-2.97-1.15-5.97-2.25-8.91-3.48-5.38-2.25-10.73-4.56-16.08-6.88-2.85-1.24-4.88-3.46-5.98-6.24-1.86-4.72-2.79-9.69-2.89-14.8-.02-1.1-.41-2.2-.64-3.37,1.08-1.04,2.46-2.1,3.49-3.42,1.32-1.69,2.35-3.59,3.51-5.4.53,4.99.68,9.92.8,14.85.03,1.4-.09,2.8-.05,4.2.03,1.07.04,2.23,1.67,2.67.07-.73.19-1.38.2-2.04.03-6.07.23-12.14,0-18.2-.17-4.4.56-8.46,2.58-12.37.78-1.5,1.48-3.17,1.64-4.82.26-2.69,1.92-3.62,4.22-4.34.1,2.66.11,5.15.31,7.63.81,10.01,1.08,20.04,1.12,30.08,0,2.72.09,5.45.11,8.17,0,.97.5,1.49,1.41,1.47.85-.02,1.18-.66,1.19-1.44.02-1.01.11-2.04-.02-3.03-.78-5.94-.36-11.9-.53-17.85-.2-6.99-.64-13.98-.93-20.97-.12-2.79-.52-5.65-.06-8.36.55-3.23,1.89-6.28,2.58-9.55.71-3.37,1.51-6.58.98-10.05-.59-3.85-4.86-7.19-8.73-6.66-.6.08-1.29.2-1.74.55-1.22.93-2.5,1.87-3.46,3.04-.93,1.14-1.49,2.57-2.38,4.17-1.13-4.37-.44-8.37.12-12.79-.61-.62-1.63-1.47-2.41-2.5-.78-1.02-2.02-1.98-1.21-3.57-.8-.26-1.61-.51-2.44-.78.27-.36.48-.65.74-1-5.65-.83-6.8-1.69-7.62-5.69,2.85-.07,5.62-.47,8.09-2-2.54-.05-5.06.1-7.57.1-2.48,0-5.04.32-7.66-1.21,3.98-2.32,7.51-4.62,10.44-7.75-1.47.73-2.94,1.47-4.42,2.2-.06-.12-.12-.24-.18-.35.69-.48,1.38-.95,2.07-1.43-.09-.14-.18-.27-.28-.41-1.17.7-2.41,1.31-3.51,2.12-2.92,2.15-6.24,3.45-9.62,4.61-4.48,1.54-9,2.97-13.5,4.46-.92.3-1.83.62-2.75.92.16-.56.4-.88.72-1.08,4.33-2.69,8.65-5.38,13.01-8.02.67-.4,1.18-.67.59-1.5-1.58.59-3.24,1.04-4.72,1.81-3.61,1.89-7.09,4.03-10.71,5.88-2.69,1.38-5.52,2.49-8.31,3.65-.56.23-1.24.15-2.08.24,1.54-2.9,3.33-5.1,5.39-7.13,2-1.97,3.83-4.11,5.74-6.17-1.54.75-2.83,1.96-4.35,2.56-3.02,1.2-5.12,3.48-7.26,5.69-1.7,1.75-3.1,3.79-4.76,5.85-.17-.58-.33-1-.42-1.43-.74-3.61-.18-7.2.85-10.58,1.58-5.17,3.25-10.38,6.51-14.85.15-.21.13-.55.19-.83-2.25,2.22-3.85,4.83-5.29,7.54-.76,1.42-1.17,3.04-2.38,4.19,0,0,0,0,0,0-.81.18-1.43.46-1.73,1.4-1.32,4.19-2.45,8.37-1.42,12.82.05.2-.09.44-.18.85-3.4-.12-6.8-.27-10.2-.35-1.24-.03-2.49.08-3.73.18-.8.06-1.62.17-2.11,1.28h6.78c.05.2.11.39.16.59-1.3.89-2.68,1.67-3.87,2.68-1.33,1.12-1.89,2.33-2.43,4.47,1.02-.86,1.82-1.44,2.51-2.13,3.2-3.17,7.12-4.84,11.5-5.47.82-.12,1.78.35,2.61.7.75.32,1.4.85,1.86,1.14.38,1.45.92,2.68.99,3.93.27,4.96-.93,9.58-3.75,13.7-.55.81-1.17,1.94-2.62,1.27-.28-.13-.84.27-1.23.5-1.89,1.08-3.77,2.18-5.66,3.26-.85.49-1.6.51-2.59.03-3.22-1.55-5.94-.4-7.41,2.9-.78,1.76-.84,3.61-.85,5.49-.03,4.21-.04,8.44,1.97,12.3,1.25,2.4,2.7,4.69,3.93,6.81-.22,3.3-.66,6.47-.58,9.64.12,4.89.6,9.77.93,14.65.18,2.64.11,5.33.64,7.89.34,1.66.26,3.26.35,4.89.04.8-.17,1.85.25,2.35.13.15.21.3.29.44.02.72.04,1.44.06,2.16-.07.35-.07.66.03.94.11,3.35.31,6.71.88,9.95.72,4.03,2.55,7.7,6.12,9.73-1.41.85-2.78,1.79-4.17,2.68-.01.69-.23,1.16-.57,1.5-7.97-2.67-11.32-11.21-12.23-19.07-.5-4.29-.72-8.63-.86-12.98.35-.33.46-.65.43-.96-.22-2.61-.53-5.22-.69-7.84-.04-1.16-.08-2.31-.12-3.47,0-.05-.02-.09-.03-.14-.22-5.43-.39-10.87-.52-16.31-.04-1.93.26-3.86.28-5.79.05-4.59.15-9.18,0-13.76-.1-2.83.38-5.55.84-8.29.15-.9.31-1.83.64-2.67,1.25-3.15,1.91-6.21,1.01-9.73-.69-2.7-.83-5.79-.25-8.51.92-4.39,2.52-8.65,4.04-12.89,1-2.77,2.46-5.35,5.14-6.92,1.27-.74,2.67-1.25,3.92-2.02,1.05-.64,1.85-.66,2.6.38.16.22.52.31.85.49.61-.75,1.18-1.45,1.65-2.03-.32-3.38-.68-6.61-.9-9.86-.08-1.14.11-2.33.34-3.46.48-2.27,1.09-4.5,1.61-6.76,1.92-8.29,7.25-13.7,14.67-17.32,4.95-2.41,10.35-2.6,15.69-3,1.36-.1,2.82.08,4.14.45,3.14.89,6.22,1.96,9.33,2.96,6.79,2.18,11.85,6.79,16.21,12.12,3.44,4.2,5.12,9.38,6.64,14.52.79,2.68,1.4,5.43,1.86,8.19.38,2.27,1.43,4.02,3.02,5.63,4.19,4.22,7.58,9.03,10.42,14.27,2.07,3.82,2.86,8.04,4.08,12.12,2.47,8.34,2.32,16.96,2.01,25.48-.29,8.02.29,16,.28,24.01,0,4.5.51,9.01,1.09,13.48.51,3.86-.05,7.76,1.01,11.61.72,2.58.57,5.4.84,8.1.24,2.46.56,4.91.78,7.37.09,1.05.02,2.12.02,3.3Z"/>
  <path class="cls-1" d="m43.81,160.34l.07,1.49h-.27v-1.48c.06,0,.13,0,.19,0Z"/>
  <path class="cls-1" d="m111.76,127.68c-2.26,3.84-5.18,5.89-9.14,6.08-5.31.26-9.79-1.84-13.66-5.37-.09-.08-.06-.29-.12-.6,1.05-.2,1.89.33,2.75.71,2.2.95,4.35,2.03,6.6,2.84,2.52.9,5.03.66,7.4-.69,1.35-.77,2.73-1.47,4.11-2.17.52-.26,1.08-.43,2.06-.8Z"/>
  <path class="cls-1" d="m75.1,94.73c-2.12-.9-2.35-1.49-.77-3.08,2.09-2.11,4.86-3.02,7.7-3.49,2.54-.42,5.12-.19,7.61.58,1.73.54,3.14,1.5,3.91,3.28-1.33.66-2.32.19-3.27-.35-3.85-2.2-7.66-1.44-11.36.32-1.41.68-2.59,1.84-3.88,2.79,0,0,.06-.05.06-.05Z"/>
  <path class="cls-1" d="m122.59,89.5c-1.78.75-2.77.04-3.8-.47-3.55-1.78-8.49-.92-11.33,1.9-.45.44-1.17.86-1.75.84-.58-.01-1.34-.46-1.65-.95-.19-.31.19-1.13.51-1.58.34-.49.86-.92,1.39-1.2,4.29-2.31,8.76-3.05,13.37-1.13,1.13.47,2,1.56,3.25,2.58Z"/>
  <path class="cls-1" d="m81.59,104.4c.41-1.32.71-2.68,1.25-3.94.57-1.35,1.39-1.58,3.08-1.21,1.74.38,2.33.88,2.37,2.34.06,2.2-.43,4.31-1.47,6.27-.82,1.53-2.27,1.69-3.59.45-.85-.81-1.39-2.26-1.65-3.89Z"/>
  <path class="cls-1" d="m109.24,104.4c.41-1.32.71-2.68,1.25-3.94.57-1.35,1.39-1.58,3.08-1.21,1.74.38,2.33.88,2.37,2.34.06,2.2-.43,4.31-1.47,6.27-.82,1.53-2.27,1.69-3.59.45-.85-.81-1.39-2.26-1.65-3.89Z"/>
</svg>