<?xml version="1.0" encoding="UTF-8"?>
<svg id="OBJECTS" xmlns="http://www.w3.org/2000/svg" viewBox="0 0 208 208.59">
  <defs>
    <style>
      .cls-1 {
        fill: #e5beec;
      }
    </style>
  </defs>
  <path class="cls-1" d="m168.76,162.19c-.09-.33-.04-.61.07-.86-.71-2.29-1.46-4.58-2.29-6.84-2.52-6.87-7.52-11.5-13.7-14.93-4.6-2.56-9.53-4.44-14.56-6.03-3.96-1.25-7.84-2.71-11.38-4.93-1.43-.9-2.85-1.78-3.28-3.62-.16-.67-.58-1.28-1.52-1.19,1.34-.27,2.64-.39,3.94-.56,2.05-.27,4.12-.48,6.15-.9,1-.21,1.88-.67,2.73.31.14.17.62.18.88.09,1.76-.63,3.56-1.18,5.24-2,1.93-.94,3.79-1.89,6.04-1.8,1.34.05,2.32-1.02,2.34-2.38.02-1.31.02-2.64-.14-3.94-.33-2.8-.92-5.58-.42-8.42.07-.42.05-.88-.02-1.31-.34-2.16-.49-4.29-.32-6.5.25-3.3.11-6.63.04-9.95-.05-2.26-.26-4.51-.41-6.76-.02-.25-.09-.49-.12-.74-.32-2.48-.68-4.96-.94-7.45-.35-3.43-.45-6.89-.97-10.28-1.24-8.1-3.45-15.93-7.15-23.28-.87-1.73-1.79-3.45-2.82-5.09-2.25-3.58-5.15-6.63-8.2-9.52-1.68-1.59-3.39-3.25-5.38-4.38-6.5-3.69-13.45-3.52-20.48-1.8-.6.15-1.15.49-1.7.78-.72.37-1.42.77-2.09,1.14-.61-.26-1.1-.55-1.64-.7-3.94-1.05-7.86-2.27-12.03-1.94-.81.06-1.63.02-2.45,0-4.35-.1-8.42.86-12.37,2.73-4.34,2.05-7.76,5.06-10.43,8.96-3.79,5.51-6.25,11.57-7.17,18.22-.31,2.24-.53,4.48-.8,6.73-.71,5.79-1.52,11.57-2.13,17.37-.6,5.68-1.05,11.37-1.46,17.06-.26,3.56-.36,7.14-.48,10.72-.14,4.45-.2,8.9-.34,13.36-.07,2.3-.24,4.61-.37,7,1.91,1.04,3.63,2.26,5.55,2.95,3.96,1.41,8.09,2.27,12.29,2.65,1.43.13,2.81-.2,3.88-1.19.48,3.02,3.1,1.95,4.96,2.3.19.67.35,1.27.46,1.65,1.48.1.63-2.43,2.36-1.7.15,1.55-.69,2.51-1.79,3.19-1.43.89-2.89,1.81-4.46,2.38-5.02,1.82-10.1,3.47-14.62,6.43-.16.1-.36.3-.48.26-1.84-.54-2.71.95-3.44,1.99-1.89,2.7-4.26,5.08-5.64,8.12,0,.07,0,.15-.02.23-.49,1.63-1.2,3.2-2.1,4.65-.08.12-.17.2-.28.23-.5,1.02-.88,2.09-1.25,3.18-1.11,3.33-2.53,6.57-3.48,9.94-1.05,3.74-1.66,7.59-2.54,11.37-.3,1.28-.3,2.63-1.18,3.82-.48.65-.3,1.78-.41,2.67.64.35,1.11.6,1.78.96.82-1,1.68-1.95,2.05-3.24,1.12-3.91,2.21-7.83,3.38-11.73,1.01-3.36,2.1-6.69,3.18-10.03.11-.35.29-.71.53-.98.64-.74,1.33-1.43,1.91-2.03-.14,3.88-.07,7.87-.48,11.82-.41,3.86.37,7.64.32,11.46-.02,1.43.25,2.87.45,4.3.09.65.35,1.28.54,1.97.93-.13,1.66-.23,2.48-.35-.04-.43-.05-.8-.11-1.15-.81-5.46-1.47-10.92-1.21-16.47.11-2.31.06-4.66-.27-6.94-.31-2.1-1.15-4.12.12-6.17.08-.13-.04-.37,0-.54.45-2.25.5-4.62,2.21-6.46.36-.38.46-1,.68-1.5.2-.45.3-.97.6-1.34,2.86-3.51,5.94-6.77,10.44-8.21.18-.06.39-.09.52-.21,1.46-1.33,3.38-1.53,5.13-2.17,1.76-.64,3.48-1.4,5.2-2.15.61-.26,1.17-.63,1.55-.83,1.03,1.01,1.78,2.19,2.84,2.68,1.67.78,3.53,1.3,5.36,1.58,6.62,1.02,13.13-.47,19.67-1.13,2.43-.24,4.83-.74,7.24-1.14,2.85-.47,5.73-.78,8.52-1.5,1.93-.5,4.05-.91,5.29-2.93.48.3.89.59,1.33.81,3.16,1.53,6.21,3.4,9.52,4.47,6.36,2.06,12.51,4.49,18.19,8.05,3.71,2.33,6.59,5.41,8.35,9.45,1.99,4.56,3.43,9.3,4.64,14.12,1.34,5.34,2.26,10.8,4,16.04.04.12-.05.29-.11.49.32,1.27.7,2.53.93,3.82,0,.05.01.11.02.16.17.63.32,1.28.43,1.94.03.16,0,.3-.01.44.73.24,1.23-.27,1.56-1.18.26-.07.47-.28.47-.62,0-.27,0-.53,0-.8-1.14-8.28-2.66-16.1-4.85-24.21Zm-89.08-29.09c-1.25-.26-1.89-.91-2.82-3.04.85-1.11,1.71-2.23,2.82-3.68v6.72Zm23.61-.25c-.18-1.17-.35-2.26-.51-3.36-.41-2.72-.75-5.46-1.25-8.17-.17-.92-.72-1.77-1.34-2.59.13,4.76.47,9.45,1.06,14.08-1.06.59-8.67,1.6-11.79,1.59-1.44-3.75-1.2-7.91-2.52-12-.85,4.12-.88,7.95.14,11.99-1.51-.09-2.81-.09-4.09-.28-.34-.05-.76-.6-.87-1-.2-.72-.19-1.49-.26-2.24-.23-2.36-.44-4.71-.7-7.07-.04-.35-.2-.96-.39-.99-1.63-.32-.77-1.2-.48-1.93.26-.64.58-1.25.87-1.88,1.33-.06,2.67-.05,3.76-1.09.7-.67,1.6-.59,2.6-.25.79,2.79.11,5.96,1.87,8.9.43-.93.26-1.64.23-2.33-.09-1.82-.25-3.63-.27-5.45-.01-1.42.29-1.64,1.67-1.63.92,0,1.84,0,2.89,0,.19,2.64.35,5.07.54,7.5.18,2.4.34,4.8,1.17,7.08.13-.01.27-.03.4-.04-.15-4.84-.3-9.69-.47-14.8,1.41-.15,2.68-.28,3.96-.41,2.61-.26,2.6-.25,3.14,2.36.71,3.44,1.44,6.88,2.17,10.31.18.82.36,1.66,1.34,2.53-.87-5.36-1.69-10.33-2.49-15.28,1.64-.88,3.1-.77,4.73-.49.3,5.3.73,10.54,2.17,15.86-2.39.35-4.71.69-7.27,1.06Zm-17.41-23.6c1.17.52,2.09,1.09,3.08,1.33,2.79.66,5.61,1.25,8.44,1.73,1.71.29,3.47.38,5.21.45,1.9.08,3.73-.34,5.5-1.03,1.13-.44,1.24-.34,1.86,1.3-8.41.48-16.65,1.92-25.19,2.36.39-2.16.73-4.06,1.1-6.14Zm-8.08-8.78c-3.45-3.46-5.91-7.65-7.56-12.24-1.86-5.17-2.94-10.51-2.5-16.06.07-.87.26-1.73.4-2.69.97-.57,1.84-.62,2.82-.4,3.01.68,6.03,1.1,9.15.95,2.37-.12,4.75.23,7.13.21,2-.02,3.99-.3,5.99-.45.8-.06,1.28-.5,1.5-1.22.56-1.79,1.17-3.56,1.61-5.38.64-2.66,1.14-5.35,1.74-8.23.59,3.29,1.13,6.36,1.68,9.42.09.49.18.99.31,1.47.6,2.14.97,2.37,3.15,2.34,1-.02,2,.22,3,.21,1.75-.02,3.51-.21,5.26-.19,3.19.04,6.39.18,9.48.27,1.14,1.23.75,2.53.51,3.79-.2,1.08-.56,2.14-.71,3.22-.3,2.16-.38,4.35-.77,6.49-.31,1.7-.85,3.38-1.46,5.01-1.61,4.28-3.23,8.57-5.02,12.78-1.41,3.29-3.79,5.92-6.53,8.17-1.53,1.26-3.44,1.92-5.4,2.04-1.86.12-3.75-.08-5.62-.2-.75-.05-1.48-.32-2.23-.4-6.58-.7-11.5-4.45-15.94-8.91Zm33.81,30.94c-1-5.19-1.43-10.38-1.15-15.78,1.31-.05,2.54-.17,3.78-.13,1.2.03,1.41.26,1.44,1.47.03,1.44,0,2.88-.08,4.32,0,.16-.45.3-.76.5.34.72.22,1.68,1.21,2.08.15.06.21.43.26.67.24.97.4,1.97.7,2.92.29.94.72,1.85,1.08,2.77-2.1.68-4.09,1.68-6.48,1.18Zm9.57-2.13c-.75.13-1.45.26-2.23.4-.82-3.39-1.52-6.58-1.34-9.87l.45-.1c.64,1.75,1.32,3.48,1.9,5.25.27.84.6,1.51,1.73,1.61-.17.91-.33,1.74-.51,2.71Zm.15-8.36c-1.06-1.83-2.06-3.73-3.32-5.42-1.25-1.67-3.03-2.59-5.23-2.46-.25.01-.49-.03-.65-.05-1.75-2.6.03-4.32,1.48-5.98,2.68-3.07,4.89-6.45,6.15-10.28,1.71-5.17,3.49-10.36,4.02-15.83.11-1.17-.04-2.36-.07-3.54l.02.02c-.15-2.69-.29-5.38-.44-8.06,1.82-.83,1.85-.83,1.74-2.89-.07-1.2.4-2.04,1.35-2.7,2.82-1.96,5.59-.89,7.38,2.16,1.4,2.38,1.71,5.11,1.33,7.86-.5,3.63-1.2,7.2-3.61,10.16-.35.43-.72.88-1.15,1.23-1.18.98-2.54,1.03-3.82.18-.39-.26-.77-.55-1.23-.71.94,1.63,2.28,2.68,4.23,2.71.47,0,1-.15,1.4-.4,2.23-1.43,3.56-3.54,4.79-5.87,1.11-2.11.79-4.56,2.05-6.55.1-.15.15-.37.13-.54-.41-2.77-.35-5.63-2.01-8.12-1.15-1.72-2.65-3.01-4.35-4.1-.54-.35-.94-.61-1.07-1.37-.44-2.46-.96-4.92-1.59-7.34-.69-2.65-1.55-5.25-2.64-7.85,0,.45-.05.91,0,1.35.32,2.27-.03,4.58.69,6.84.7,2.21,1.09,4.51,1.61,6.77.03.11-.03.24-.07.56-1.27.37-2.61.76-3.95,1.15-.48-1.26-.94-2.47-1.5-3.96-1.22,3.2-.58,6.27-1.05,9.31-1.25-.12-2.45-.23-3.81-.36.82-1.69.49-3.27.02-4.84-1.05-3.48-2.13-6.95-3.21-10.43-.09-.28-.28-.52-.49-.89-1.18.91-1.02,2.09-.88,3.14.28,2.05.67,4.09,1.11,6.11.48,2.2,1.06,4.38,1.62,6.65h-5.25c-.63-3.97-1.22-7.86-1.87-11.75-.18-1.11-.51-2.19-.78-3.28-.03-.12-.02-.33-.09-.35-1.38-.49-1.22-1.98-2.03-2.9.08,3.09.93,6.06,1.42,9.08.49,3.03.86,6.07,1.3,9.21-1.81.45-3.72.12-5.63-.09-.78-.09-.99-.63-1.17-1.27-1.12-4.11-1.93-8.28-2.44-12.51-.06-.48-.2-1-.45-1.41-.51-.83-1.12-1.6-1.84-2.61-.35.65-.83,1.24-.99,1.9-.49,2.07-.81,4.17-1.28,6.25-.72,3.18-1.48,6.35-2.26,9.52-.41,1.69-1.58,2.48-3.27,2.51-1.63.03-3.27.09-4.89.01-2.32-.1-4.63-.31-7.08-.48-.18-1.5-.45-3.04-.54-4.58-.37-5.94.14-11.8,1.62-17.57.15-.6.17-1.23.25-1.84-.35-.22-.7-.45-1.26-.8-1.32,4.06-1.96,8.12-2.46,12.18-.5,4.08-.22,8.2.26,12.58-2.16-.38-3.93-.69-5.85-1.03-.07-.81-.19-1.55-.17-2.28.14-4.74,1.17-9.33,2.36-13.89.38-1.44.75-2.88.82-4.43-.85,2.5-1.79,4.98-2.5,7.52-.36,1.26-1.22,2.21-1.57,3.51-.75,2.83-1.12,5.65-1.08,8.56,0,.11-.08.23-.18.49-.58-.17-1.18-.3-1.75-.52-1.75-.68-1.87-.95-1.57-2.83.15-.93.18-1.87.22-2.81.15-3.69.25-7.38.46-11.07.04-.73.51-1.42.74-2.14.11-.34.14-.7.26-1.3-2.11,2.97-3.02,6.09-3.4,9.38-.2,1.74-.26,3.5-.4,5.25-.09,1.12-.2,2.24-.32,3.57-.95,0-1.81-.05-2.67,0-2.5.17-3.72,1.13-4.1,3.59-.84,5.32-.4,10.52,1.83,15.48,1.23,2.73,3.49,4.21,6.26,5,1.19.34,1.71.17,3.44-.86,2.73,8.4,8.51,14.35,15.57,19.28-.31,2.93.91,5.79-.12,8.84-3.81,1.09-4.26,4.48-4.68,7.82h-2c0-2.52.02-4.94,0-7.36-.03-2.41.07-4.84-.77-7.19-.81,2.34-.62,4.77-.77,7.17-.15,2.37-.28,4.74-.44,7.26h-2.31c-.19-1.26-.38-2.49-.57-3.71-.29-1.98-.58-3.97-.86-5.95-.11-.78-.48-1.35-1.32-1.28-.81.07-1.14.7-1.23,1.45-.21,1.68-.35,3.37-.64,5.03-.2,1.16-.61,2.28-.94,3.46-2.38.49-4.4-.61-6.55-.73.12-.82.35-1.48.28-2.11-.39-3.34.24-6.63.46-9.94.17-2.63.39-5.25.58-7.88.04-.5.09-1.02,0-1.5-.14-.65-.42-1.26-.79-1.88-.94,7.47-2.43,14.87-1.87,22.64-2.54-.18-4.67-.83-6.56-2.11-.67-.45-.88-1.22-.64-2.21.38-1.57.5-3.22.58-4.85.12-2.63.12-5.26.16-7.89.05-3.26.09-6.52.13-9.77.07-5.4.31-10.79,1.17-16.14.34-2.09.19-4.26.36-6.39.29-3.56.67-7.11,1-10.67.05-.56.09-1.13.11-1.69.07-2,.05-4,.69-5.94.08-.23.08-.5.07-.75-.09-3.1.73-6.06,1.34-9.06.25-1.22.59-2.42.9-3.62,1.09-4.13,3.31-7.71,5.68-11.17,3.41-4.96,8.29-7.92,14.05-9.4,1.56-.4,3.22-.47,4.84-.6,4.07-.31,8.14-.19,12.19.33.81.1,1.64.15,2.4.41.6.2,1.2.6,1.65,1.05.94.95,1.91,1.12,2.97.26,1.57-1.28,3.25-1.91,5.35-1.76,1.35.1,2.73-.39,4.1-.52,3.2-.31,6.46-.68,9.41.95,1.79.99,3.56,2.18,5,3.61,2.7,2.7,5.19,5.63,7.7,8.51.6.69.98,1.58,1.46,2.38,2.91,4.89,5,10.15,6.35,15.65,1.58,6.4,2.68,12.9,3.17,19.49.34,4.62.7,9.24.89,13.87.19,4.51.13,9.02.27,13.53.17,5.89.09,11.82,1.57,17.6.03.12.03.25.05.37q.5,2.93-2.49,3.49c-.66.13-1.31.33-2.12.54-.89-2.91-1.79-5.87-2.77-9.06-1.23,1.84-.54,3.6-.41,5.25.13,1.66.66,3.3,1.06,5.14-1.05.31-2.04.61-3.28.98-.07-.82-.15-1.42-.15-2.01-.03-2.37-.15-4.75-.01-7.11.13-2.18-.71-4.13-1.07-6.59-1.08,1.35-1.24,2.55-1.32,3.87-.19,3.57-.48,7.13-.76,10.69-.03.36-.2.72-.36,1.25-1.9.34-3.85.68-5.96,1.06-.74-3.63,0-7-.15-10.34-.15-3.38-.27-6.76-.4-10.15-.16,1.9-.32,3.8-.49,5.7h-.35c-.07-.9-.14-1.79-.2-2.68-.67,5.69-.76,11.41-.77,17.1-1.66.71-1.77.64-2.54-.69Zm-61.91-49.64c.43-.34.72-.84,1.08-1.27.42-.5.85-.98,1.23-1.42,1.63.57,1.92,1.77,2.25,2.97-3,1.16-4.2,3.21-3.34,5.59.62,1.7,2.16,2.55,3.95,1.92-1.91-.58-2.7-1.69-2.18-3.51.31-1.08.78-1.97,2.17-2.07.14,2.05.25,4.03.42,6,.13,1.5.35,2.99.49,4.49.18,1.91-1.84,3.36-3.55,2.61-1.83-.79-2.75-2.29-3.36-4.07-1.25-3.66-1.85-7.4-1.56-11.27.07-.99.1-1.98.2-2.96.18-1.85,1.48-2.47,3.08-2.71.36-.05.74,0,1.25,0,.1.49.16.79.24,1.14-.17.09-.32.2-.49.24-1.36.31-2.45.99-3.05,2.27-.2.43-.35.96-.32,1.43.05.82.83,1.15,1.48.63Zm4.2-3.26c.85.13,1.63.32,1.86,1.16-.11.09-.22.18-.33.26l-1.54-1.43Z"/>
  <path class="cls-1" d="m154.66,164.78c.34.78.83,1.47.94,2.22.45,2.91.77,5.83,1.16,8.75.17,1.3.41,2.59.55,3.89.08.72.01,1.46.01,2.19-.14.06-.28.11-.42.17-.28-.37-.72-.7-.81-1.11-.53-2.5-1-5-1.43-7.52-.36-2.14-.62-4.3-.96-6.45-.18-1.13-.21-1.12.95-2.13Z"/>
  <path class="cls-1" d="m96.47,27.82c.87-.94.8-1.56-.03-2.23-1.11-.9-2.37-1.38-3.75-1.61-1.02-.17-2.03-.39-3.38-.66,2.32-.8,6.62-.11,8.86,1.25.69-.54.86-1.76,2.21-1.66-.05.51-.09,1.02-.14,1.58,1.51-.4,2.87-.89,4.28-1.08,1.28-.17,2.62-.08,3.91.04.71.07,1.1.56.59,1.35-2.71-.58-5.14.38-7.57,1.33-.84.33-1.63.76-2.66,1.24,1.49.12,2.84.16,4.17.36.78.12,1.56.42,2.29.74.72.32.95.92.59,1.97-.49-.27-.98-.4-1.25-.71-.66-.76-1.44-.91-2.37-.82-1.36.13-2.73.21-4.36.34-.53,2.08-1.07,4.23-1.63,6.44-1.32-1.26-1.33-1.64-.23-6.45-2.76-1.53-5.65-.83-8.52-.42,2.86-1.62,5.92-1.52,9.01-1Z"/>
  <path class="cls-1" d="m89.52,43.52c-.13.76-.14,1.32-.33,1.83-1.22,3.38-.95,6.91-1.16,10.41-.2,3.29.21,6.67-1,9.87-.2.53-.23,1.14-1,1.13-1.69-3.99.4-18.41,3.48-23.23Z"/>
  <path class="cls-1" d="m123.73,77.37c1.24-.25,2.47-.53,3.37-1.5.95-1.03.74-1.81-.65-2.02-1.17-.18-1.49-1.03-1.51-1.84-.07-2.66.56-5.13,2.79-6.86,1.54-1.2,3.43-.57,4.17,1.44-.41-.05-.8,0-1.09-.15-1.22-.6-1.57-.68-2.09.33-.88,1.69-1.85,3.4-1.78,5.4.65.5,1.37.86,1.77,1.43.61.87,1.1,1.98.51,3-.62,1.08-1.75,1.68-3.02,1.54-.85-.09-1.66-.51-2.49-.78,0,0,.01.01.01.01Z"/>
  <path class="cls-1" d="m79.13,44.43c.07-.65.06-1.32.23-1.94.19-.71.54-1.38.86-2.13-.34-.07-.61-.13-1.09-.22.67-.95,1.28-1.82,1.93-2.75.19.23.43.4.4.5-.66,2.22-1.14,4.51-2.37,6.52,0,0,.04.03.04.03Z"/>
  <path class="cls-1" d="m106.79,44.46c.21.76.43,1.53.67,2.39h-1.35c.12-.79.23-1.58.34-2.36.11-.01.23-.02.34-.03Z"/>
  <path class="cls-1" d="m114.41,47.61c.03.41.05.82.08,1.23-.07,0-.15.01-.22.02-.04-.41-.08-.82-.12-1.23.09,0,.17-.01.26-.02Z"/>
  <path class="cls-1" d="m82.62,35.12c.09-.27.18-.54.28-.81.09.03.18.06.27.09-.08.28-.17.55-.25.83-.1-.03-.2-.07-.3-.1Z"/>
  <path class="cls-1" d="m115.35,124.84c.94.54.85,1.17.25,1.94-.59-.63-.31-1.31-.25-1.94Z"/>
  <path class="cls-1" d="m115,119.8c-.32-.61-.54-1.04-.84-1.62q1.13.37.84,1.62Z"/>
  <path class="cls-1" d="m89.62,92.94c.66.1,1.13.13,1.58.23,2.3.54,4.63.65,6.97.59,1.87-.04,3.53-.75,4.93-2.02.36-.33.8-.57,1.35-.96.31,1.36-.51,2.19-.65,3.16-3.43,1.52-6.94,1.7-10.53.97-.88-.18-1.76-.39-2.62-.66-.58-.18-.56-.24-1.03-1.31Z"/>
  <path class="cls-1" d="m95.74,88.99c1.14-1.2,2.56-1.8,3.06-3.32-1.33-1.85-2.55-3.8-2.81-6.16-.08-.69-.01-1.39-.01-2.1,1-.14,1.26.31,1.42,1.01.26,1.16.51,2.33.94,3.43.43,1.1,1.02,2.16,1.67,3.14.42.63.41,1.05.03,1.67-.95,1.54-2.15,2.54-4.3,2.33Z"/>
  <path class="cls-1" d="m110.3,72.47c0,1.96-.71,3.55-1.58,3.55s-1.58-1.59-1.58-3.55.71-3.55,1.58-3.55,1.58,1.59,1.58,3.55Z"/>
  <path class="cls-1" d="m86.01,72.47c0,1.96-.71,3.55-1.58,3.55s-1.58-1.59-1.58-3.55.71-3.55,1.58-3.55,1.58,1.59,1.58,3.55Z"/>
</svg>